<svg width="683" height="683" viewBox="0 0 683 683" fill="none" xmlns="http://www.w3.org/2000/svg">
<mask id="mask0_717_934" style="mask-type:luminance" maskUnits="userSpaceOnUse" x="0" y="0" width="683" height="683">
<path d="M0 0H682.667V682.667H0V0Z" fill="white"/>
</mask>
<g mask="url(#mask0_717_934)">
<g filter="url(#filter0_d_717_934)">
<path d="M81.6975 465.448L425.299 464.33C431.117 460.076 472.529 434.772 515.284 405.896C556.472 378.079 599.45 360.69 600.964 332.986C601.082 326.031 599.267 317.158 592.337 310.964C559.239 281.376 505.203 241.24 478.836 217.218H236.896L231.516 350.731L83.5628 441.424L81.6975 465.448Z" fill="white"/>
</g>
<path d="M533.222 370.495C510.954 370.495 492.838 352.379 492.838 330.11C492.838 307.843 510.954 289.726 533.222 289.726C555.49 289.726 573.606 307.843 573.606 330.11C573.606 352.379 555.49 370.495 533.222 370.495Z" fill="white"/>
<path d="M533.222 289.226C510.678 289.226 492.338 307.566 492.338 330.11C492.338 352.654 510.678 370.996 533.222 370.996C555.765 370.996 574.106 352.654 574.106 330.11C574.106 307.566 555.765 289.226 533.222 289.226ZM533.222 290.226C555.214 290.226 573.106 308.118 573.106 330.11C573.106 352.104 555.214 369.996 533.222 369.996C511.23 369.996 493.338 352.104 493.338 330.11C493.338 308.118 511.23 290.226 533.222 290.226Z" fill="#0573BB"/>
<path d="M557.795 354.683C551.231 361.247 542.504 364.861 533.222 364.861C523.939 364.861 515.212 361.247 508.65 354.683C502.086 348.119 498.471 339.393 498.471 330.111C498.471 320.828 502.086 312.101 508.65 305.539C515.212 298.975 523.939 295.36 533.222 295.36C542.504 295.36 551.231 298.975 557.795 305.539C564.358 312.101 567.972 320.828 567.972 330.111C567.972 339.393 564.358 348.119 557.795 354.683ZM533.222 291.508C511.902 291.508 494.619 308.791 494.619 330.111C494.619 351.431 511.902 368.713 533.222 368.713C554.542 368.713 571.824 351.431 571.824 330.111C571.824 308.791 554.542 291.508 533.222 291.508Z" fill="#0872BA"/>
<path d="M529.662 308.069H523.952C523.952 308.069 523.956 299.155 523.952 299.108C523.948 299.063 523.91 299.041 523.845 299.041C523.184 299.041 519.68 301.197 519.68 301.197V308.161L514.476 308.211L517.033 306.12L514.712 303.565C511.23 305.563 502.47 314.671 501.062 328.033H504.265C505.52 318.237 509.188 314.244 510.765 312.063H530.126V326.456H534.12V301.476H529.662V308.069Z" fill="#0872BA"/>
<path d="M513.615 314.121V316.956H510.646C509.761 316.956 509.141 321.564 509.141 321.564H513.261L513.262 321.562C513.326 321.562 513.306 323.69 513.306 323.69H518.222V321.564H521.589V323.601H526.063V321.741H528.669V317.134H526.019V314.165H521.943V317.134H518.089V314.121H513.615Z" fill="#0872BA"/>
<path d="M515.877 340.92C515.202 340.92 514.913 340.63 514.913 339.957C514.913 339.282 515.202 338.994 515.877 338.994H525.028C525.701 338.994 525.99 339.282 525.99 339.957C525.99 340.63 525.701 340.92 525.028 340.92H515.877ZM515.877 334.33H525.028C525.701 334.33 525.99 334.618 525.99 335.293C525.99 335.966 525.701 336.256 525.028 336.256H515.877C515.202 336.256 514.913 335.966 514.913 335.293C514.913 334.618 515.202 334.33 515.877 334.33ZM515.877 329.178H525.028C525.701 329.178 525.99 329.468 525.99 330.141C525.99 330.814 525.701 331.104 525.028 331.104H515.877C515.202 331.104 514.913 330.814 514.913 330.141C514.913 329.468 515.202 329.178 515.877 329.178ZM524.849 344.366H528.482V326.064H511.79L511.788 326.062C511.614 326.062 511.868 344.286 511.868 344.286H515.866V352.362C508.769 347.12 505.516 339.973 504.238 330.95H501.206C500.496 331.04 501.128 349.697 519.252 358.572V344.633H521.74V351.652H530.092C530.092 351.652 529.914 361.416 530.092 361.593C530.27 361.772 534.08 362.125 534.08 362.125V348.009H524.849V344.366Z" fill="#0872BA"/>
<path d="M548.768 322.551C548.796 322.537 548.821 322.53 548.848 322.53C549.401 322.53 549.237 325.917 549.188 327.314H552.956V317.707H559.194C562.234 321.074 562.234 327.314 562.234 327.314H565.189C565.436 324.605 563.526 317.402 561.412 314.094H555.337L557.801 309.345C556.34 306.022 543.622 298.319 537.533 298.321C537.416 298.321 537.301 298.323 537.189 298.329L537.025 301.285C544.169 302.106 551.674 307.465 552.956 309.249L550.994 311.477C548.86 307.863 540.145 306.294 540.145 306.294L539.653 309.742C544.826 311.302 545.354 312.471 545.318 313.602H536.861V317.05C536.861 317.05 539.96 317.049 542.416 317.049C543.644 317.049 544.713 317.05 545.154 317.05C546.832 317.051 546.688 321.647 542.281 321.977L536.369 322.058V326.071H542.854C545.073 326.071 548.768 322.551 548.768 322.551Z" fill="#0872BA"/>
<path d="M553.108 330.848V328.539H549.324V330.683H537.037V335.136H549.232V338.599H541.893C541.316 346.103 537.357 348.083 537.357 348.083V352.371C543.048 351.464 545.769 341.899 545.769 341.899H549.068V353.268C549.478 354.825 539.97 357.945 537.449 357.979V361.359C545.036 361.359 553.19 354.689 553.19 354.689V342.053H559.374L556.737 346.929V351.545C562.344 345.444 564.157 338.764 564.157 338.764H553.356V334.971C553.356 334.971 558.34 335.081 561.785 335.081C563.508 335.081 564.845 335.053 564.982 334.971C565.394 334.724 565.477 330.848 565.477 330.848H553.108Z" fill="#0872BA"/>
<path d="M533.222 290.226C511.23 290.226 493.338 308.118 493.338 330.11C493.338 352.104 511.23 369.996 533.222 369.996C555.214 369.996 573.106 352.104 573.106 330.11C573.106 308.118 555.214 290.226 533.222 290.226ZM533.222 291.508C554.541 291.508 571.825 308.79 571.825 330.11C571.825 351.43 554.541 368.714 533.222 368.714C511.902 368.714 494.62 351.43 494.62 330.11C494.62 308.79 511.902 291.508 533.222 291.508Z" fill="white"/>
<path d="M268.853 334.543H260.485V228.61H239.833L239.654 341.685L246.73 341.622L246.776 236.534H253.63V341.754H275.797V236.622H282.652V341.843H289.594V228.61H268.853V334.543Z" fill="#438CCA"/>
<path d="M312.003 235.787L322.41 235.896V228.111H295.021L295.079 235.896L305.047 235.787L304.667 333.323H295.294V341.843H322.586V333.323H311.809L312.003 235.787Z" fill="#438CCA"/>
<path d="M334.953 235.866H368.838V228.221H328.15V341.842H368.963V333.934H334.953V235.866Z" fill="#438CCA"/>
<path d="M381.357 235.887H409.635V276.523H381.357V235.887ZM374.153 341.008H381.457V295.301L398.572 341.843H415.477V334.121H403.351L384.709 284.483H416.339V227.928H374.445C374.445 227.928 374.699 341.008 374.153 341.008Z" fill="#438CCA"/>
<path d="M457.463 334.069H430.52L430.399 235.193L457.463 235.087V334.069ZM423.268 227.211L423.452 341.843H464.491V227.087L423.268 227.211Z" fill="#438CCA"/>
<path d="M242.899 348.891L134.565 417.399V437.827L89.8907 458.668L92.6761 464.859L142.509 441.542V421.835L245.581 356.835H464.484V348.891H242.899Z" fill="#ED2024"/>
<path d="M263.703 373.219L205.411 415.734V429.223H174.098V421.515L251.126 373.219H263.703ZM164.574 418.031L164.49 435.484H215.737L215.614 416.938L275.747 373.219V366.114H248.046L164.574 418.031Z" fill="#ED2024"/>
<path d="M225.124 415.259V434.318H257.288V427.11H232.988V416.953L289.888 373.158H312.168L312.223 366.059H289.507L225.124 415.259Z" fill="#ED2024"/>
<path d="M281.375 426.056H268.801V433.38H303.004V426.056H290.719V418.847L333.297 373.17H339.023V365.827H317.243V373.286H322.844L281.375 417.98V426.056Z" fill="#ED2024"/>
<path d="M311.422 418.189V433.499H346.273V426.045H317.869V422.116L335.697 396.633H357.353V389.885H340.229L351.51 373.971H374.273V366.719H347.379L311.422 418.189Z" fill="#ED2024"/>
<path d="M358.46 433.801H365.51V417.988L398.346 373.568H412.851V366.216H378.202L378.303 373.53L389.784 373.558L358.46 415.61V433.801Z" fill="#ED2024"/>
<path d="M453.549 380.55L439.937 395.162L427.628 379.149V365.738C427.628 365.738 419.82 365.937 420.021 365.738V382.25L434.833 401.167L419.621 417.579V440.599H162.105V445.405H426.525V419.882L461.254 382.15V365.537H453.549V380.55Z" fill="#ED2024"/>
</g>
<defs>
<filter id="filter0_d_717_934" x="51.6975" y="203.218" width="579.272" height="308.231" filterUnits="userSpaceOnUse" color-interpolation-filters="sRGB">
<feFlood flood-opacity="0" result="BackgroundImageFix"/>
<feColorMatrix in="SourceAlpha" type="matrix" values="0 0 0 0 0 0 0 0 0 0 0 0 0 0 0 0 0 0 127 0" result="hardAlpha"/>
<feOffset dy="16"/>
<feGaussianBlur stdDeviation="15"/>
<feComposite in2="hardAlpha" operator="out"/>
<feColorMatrix type="matrix" values="0 0 0 0 0 0 0 0 0 0 0 0 0 0 0 0 0 0 0.25 0"/>
<feBlend mode="normal" in2="BackgroundImageFix" result="effect1_dropShadow_717_934"/>
<feBlend mode="normal" in="SourceGraphic" in2="effect1_dropShadow_717_934" result="shape"/>
</filter>
</defs>
</svg>